<?xml version="1.0" standalone="no"?>
<!DOCTYPE svg PUBLIC "-//W3C//DTD SVG 20010904//EN"
 "http://www.w3.org/TR/2001/REC-SVG-20010904/DTD/svg10.dtd">
<svg version="1.0" xmlns="http://www.w3.org/2000/svg"
 width="1000.000000pt" height="1000.000000pt" viewBox="0 0 1000.000000 1000.000000"
 preserveAspectRatio="xMidYMid meet">

<g transform="translate(0.000000,1000.000000) scale(0.100000,-0.100000)"
fill="#000000" stroke="none">
<path d="M3398 6503 c-17 -4 -18 -77 -18 -1349 l0 -1344 -75 0 -75 0 0 230 0
230 -60 0 -60 0 0 -230 0 -230 -95 0 -95 0 0 230 0 230 -60 0 -60 0 0 -295 0
-295 610 0 610 0 0 420 0 420 30 0 30 0 0 -420 0 -420 80 0 80 0 0 295 0 295
215 0 215 0 0 -165 0 -165 -155 0 -155 0 0 -70 0 -70 155 0 155 0 0 -60 0 -60
320 0 320 0 0 60 0 60 155 0 155 0 0 155 0 155 -155 0 -155 0 0 205 0 205 171
0 170 0 -3 -52 -3 -53 -107 -3 -108 -3 0 -89 0 -90 155 0 155 0 0 -275 0 -275
80 0 80 0 0 420 0 420 30 0 30 0 0 -420 0 -420 35 0 35 0 0 235 0 235 90 0 90
0 0 -235 0 -235 350 0 350 0 0 295 0 295 -215 0 -215 0 0 -240 0 -240 -75 0
-75 0 0 245 0 245 -150 0 -150 0 0 115 0 115 254 0 c140 0 261 3 270 6 14 6
16 102 16 994 l0 988 -22 6 c-26 7 -3124 6 -3150 -1z m3082 -993 l0 -910
-1505 0 -1505 0 0 910 0 910 1505 0 1505 0 0 -910z m-2540 -1355 l0 -355 -65
0 -65 0 0 235 0 235 -155 0 -155 0 0 120 0 120 220 0 220 0 0 -355z m-250
-180 l0 -175 -95 0 -95 0 0 175 0 175 95 0 95 0 0 -175z m3100 0 l0 -175 -95
0 -95 0 0 175 0 175 95 0 95 0 0 -175z"/>
<path d="M3537 6343 c-4 -3 -7 -385 -7 -849 l0 -842 23 -6 c12 -3 655 -6 1429
-6 1265 0 1408 2 1422 16 14 14 16 103 16 832 0 449 -3 827 -6 840 l-6 22
-1432 0 c-788 0 -1436 -3 -1439 -7z m2791 -845 l-3 -763 -1352 -3 -1353 -2 0
765 0 765 1355 0 1355 0 -2 -762z"/>
<path d="M5000 5550 c-165 -330 -300 -606 -300 -614 0 -28 23 -66 40 -66 12 0
98 163 313 600 164 330 297 609 297 620 0 30 -18 60 -35 60 -10 0 -123 -217
-315 -600z"/>
<path d="M4317 5744 c-133 -126 -227 -224 -227 -234 0 -21 445 -450 466 -450
10 0 14 15 14 54 l0 54 -177 168 c-98 92 -178 170 -178 173 0 3 80 82 178 175
l177 168 0 54 c0 38 -4 54 -13 54 -8 0 -116 -97 -240 -216z"/>
<path d="M5480 5906 l0 -54 180 -168 c99 -93 180 -171 180 -174 0 -3 -81 -82
-180 -174 l-180 -168 0 -54 c0 -43 3 -54 16 -54 25 0 462 421 463 446 1 16
-61 82 -223 238 -124 119 -232 216 -240 216 -13 0 -16 -12 -16 -54z"/>
<path d="M1080 4470 l0 -60 75 0 75 0 0 -365 0 -365 60 0 60 0 0 365 0 365 75
0 75 0 0 60 0 60 -210 0 -210 0 0 -60z"/>
<path d="M7750 4400 l0 -130 -45 0 -45 0 0 -60 0 -60 45 0 45 0 0 -235 0 -235
110 0 110 0 0 75 0 75 -50 0 -50 0 0 160 0 160 50 0 50 0 0 60 0 60 -50 0 -50
0 0 130 0 130 -60 0 -60 0 0 -130z"/>
<path d="M1640 3975 l0 -295 60 0 60 0 0 235 0 235 95 0 95 0 0 -60 0 -60 60
0 60 0 0 120 0 120 -215 0 -215 0 0 -295z"/>
<path d="M2220 3975 l0 -295 215 0 215 0 0 295 0 295 -215 0 -215 0 0 -295z
m310 0 l0 -175 -95 0 -95 0 0 175 0 175 95 0 95 0 0 -175z"/>
<path d="M7060 3975 l0 -295 215 0 215 0 0 295 0 295 -215 0 -215 0 0 -295z
m310 0 l0 -175 -95 0 -95 0 0 175 0 175 95 0 95 0 0 -175z"/>
<path d="M8100 3975 l0 -295 215 0 215 0 0 60 0 60 -155 0 -155 0 0 70 0 70
155 0 155 0 0 165 0 165 -215 0 -215 0 0 -295z m310 135 l0 -50 -95 0 -95 0 0
50 0 50 95 0 95 0 0 -50z"/>
<path d="M8680 3975 l0 -295 60 0 60 0 0 235 0 235 95 0 95 0 0 -60 0 -60 60
0 60 0 0 120 0 120 -215 0 -215 0 0 -295z"/>
<path d="M4360 4105 l0 -45 95 0 95 0 0 45 0 45 -95 0 -95 0 0 -45z"/>
</g>
</svg>
